<?xml version="1.0" encoding="UTF-8"?>
<svg width="1001px" height="1000px" viewBox="0 0 1001 1000" version="1.1" xmlns="http://www.w3.org/2000/svg" xmlns:xlink="http://www.w3.org/1999/xlink">
    <!-- Generator: Sketch 55.1 (78136) - https://sketchapp.com -->
    <title>编组 57</title>
    <desc>Created with Sketch.</desc>
    <defs>
        <linearGradient x1="4.16666667%" y1="50.0029448%" x2="97.4537037%" y2="50.0029448%" id="linearGradient-1">
            <stop stop-color="#FFFFFF" offset="0%"></stop>
            <stop stop-color="#D5DAE2" offset="69%"></stop>
            <stop stop-color="#D8DCE4" offset="82%"></stop>
            <stop stop-color="#E0E4EA" offset="90%"></stop>
            <stop stop-color="#EEF0F4" offset="97%"></stop>
            <stop stop-color="#F9FAFB" offset="100%"></stop>
        </linearGradient>
        <linearGradient x1="4.16666667%" y1="50.0141036%" x2="97.4537037%" y2="50.0141036%" id="linearGradient-2">
            <stop stop-color="#FFFFFF" offset="0%"></stop>
            <stop stop-color="#D5DAE2" offset="69%"></stop>
            <stop stop-color="#D8DCE4" offset="82%"></stop>
            <stop stop-color="#E0E4EA" offset="90%"></stop>
            <stop stop-color="#EEF0F4" offset="97%"></stop>
            <stop stop-color="#F9FAFB" offset="100%"></stop>
        </linearGradient>
        <linearGradient x1="97.6749878%" y1="49.9816245%" x2="-10.7929515%" y2="49.9816245%" id="linearGradient-3">
            <stop stop-color="#D5DAE2" offset="0%"></stop>
            <stop stop-color="#DDE1E8" offset="31%"></stop>
            <stop stop-color="#F3F4F7" offset="78%"></stop>
            <stop stop-color="#FFFFFF" offset="100%"></stop>
        </linearGradient>
    </defs>
    <g id="1000个上传" stroke="none" stroke-width="1" fill="none" fill-rule="evenodd">
        <g id="15" transform="translate(-6223.000000, -2551.000000)">
            <g id="编组-57" transform="translate(6223.222222, 2551.000000)">
                <rect id="矩形备份-40" x="0" y="0" width="1000" height="1000"></rect>
                <g id="编组-77" transform="translate(94.000000, 123.000000)" fill-rule="nonzero">
                    <path d="M395.792208,401.103797 L395.792208,19.6860759 C395.792208,14.465004 393.717472,9.45777354 390.024418,5.76591815 C386.331364,2.07406276 381.322507,0 376.09974,0 L376.09974,0 C365.223891,0 356.407273,8.81375642 356.407273,19.6860759 L356.407273,401.103797 C356.728517,404.619427 358.925326,407.686989 362.150909,409.124051 C370.914102,413.587862 381.285378,413.587862 390.048571,409.124051 C393.274155,407.686989 395.470964,404.619427 395.792208,401.103797 L395.792208,401.103797 Z" id="路径" fill="url(#linearGradient-1)"></path>
                    <path d="M646.506494,522.410127 L646.506494,141.083544 C646.506494,135.862472 644.431757,130.855242 640.738703,127.163387 C637.045649,123.471531 632.036793,121.397468 626.814026,121.397468 L626.814026,121.397468 C615.938176,121.397468 607.121558,130.211225 607.121558,141.083544 L607.121558,522.410127 C607.442803,525.925756 609.639612,528.993318 612.865195,530.43038 C621.596526,534.893007 631.940357,534.893007 640.671688,530.43038 C643.945572,529.034997 646.187274,525.953658 646.506494,522.410127 L646.506494,522.410127 Z" id="路径" fill="url(#linearGradient-2)"></path>
                    <polygon id="路径" fill="#FFFFFF" points="657.173247 483.949367 656.89974 603.61519 297.056364 395.908861 297.32987 276.243038"></polygon>
                    <polygon id="路径" fill="#D5DAE2" points="639.395325 494.248101 639.121818 613.913924 279.278442 406.298734 279.643117 286.541772"></polygon>
                    <path d="M275.449351,401.012658 L275.449351,281.346835 C275.611285,279.096518 277.019253,277.126002 279.096104,276.243038 C284.800158,273.229162 291.625816,273.229162 297.32987,276.243038 L297.32987,395.908861 C291.614247,392.94198 284.811727,392.94198 279.096104,395.908861 C277.058031,396.839478 275.668954,398.783555 275.449351,401.012658 L275.449351,401.012658 Z" id="路径" fill="#FFFFFF"></path>
                    <polygon id="路径" fill="#FFFFFF" points="624.990649 502.632911 624.717143 622.298734 264.873766 414.592405 265.238442 294.926582"></polygon>
                    <polygon id="路径" fill="#D5DAE2" points="607.212727 513.022785 606.848052 632.688608 247.004675 424.982278 247.369351 305.316456"></polygon>
                    <path d="M243.266753,419.787342 L243.266753,300.03038 C243.450397,297.814715 244.807182,295.867143 246.822338,294.926582 C252.556037,292.034663 259.322404,292.034663 265.056104,294.926582 L265.056104,414.592405 C259.329462,411.670989 252.54898,411.670989 246.822338,414.592405 C244.793122,415.563822 243.437369,417.544664 243.266753,419.787342 Z" id="路径" fill="#FFFFFF"></path>
                    <polygon id="路径" fill="#FFFFFF" points="592.808052 521.316456 592.443377 641.073418 232.6 433.367089 232.964675 313.701266"></polygon>
                    <polygon id="路径" fill="#D5DAE2" points="574.938961 531.706329 574.574286 651.372152 214.730909 443.756962 215.095584 324.091139"></polygon>
                    <path d="M210.992987,438.470886 L210.992987,318.805063 C211.181258,316.542254 212.575129,314.556633 214.63974,313.610127 C220.355363,310.643246 227.157883,310.643246 232.873506,313.610127 L232.873506,433.275949 C227.177489,430.22985 220.335758,430.22985 214.63974,433.275949 C212.575129,434.222455 211.181258,436.208077 210.992987,438.470886 Z" id="路径" fill="#FFFFFF"></path>
                    <path d="M210.992987,438.470886 L210.992987,318.805063 C211.198589,321.088375 212.630852,323.078924 214.730909,324 L214.730909,443.756962 C212.629468,442.789365 211.204416,440.774092 210.992987,438.470886 Z" id="路径" fill="#D5DAE2"></path>
                    <path d="M660.637662,608.901266 C660.426233,606.59806 659.001181,604.582787 656.89974,603.61519 L656.89974,483.949367 C659.010361,484.875898 660.468827,486.854603 660.728831,489.144304 C660.911169,525.053165 660.728831,572.992405 660.637662,608.901266 Z" id="路径" fill="#FFFFFF"></path>
                    <path d="M661.002338,489.144304 L661.002338,608.901266 C660.801195,611.137254 659.40616,613.08967 657.355584,614.005063 C651.64761,617.003099 644.829792,617.003099 639.121818,614.005063 L639.121818,494.339241 C644.825873,497.353117 651.65153,497.353117 657.355584,494.339241 C659.46042,493.441681 660.87379,491.428282 661.002338,489.144304 L661.002338,489.144304 Z" id="路径" fill="#D5DAE2"></path>
                    <path d="M628.272727,627.58481 C628.061298,625.281604 626.636246,623.266331 624.534805,622.298734 L624.534805,502.632911 C626.645426,503.559442 628.103892,505.538148 628.363896,507.827848 C628.272727,543.736709 628.272727,591.675949 628.272727,627.58481 Z" id="路径" fill="#FFFFFF"></path>
                    <path d="M628.81974,507.827848 L628.81974,627.58481 C628.582626,629.834293 627.155304,631.783174 625.081818,632.688608 C619.362463,635.640167 612.567407,635.640167 606.848052,632.688608 L606.848052,513.022785 C612.567407,515.974344 619.362463,515.974344 625.081818,513.022785 C627.145213,512.05698 628.560057,510.090639 628.81974,507.827848 L628.81974,507.827848 Z" id="路径" fill="#D5DAE2"></path>
                    <path d="M596.181299,646.268354 C595.938967,643.998897 594.518612,642.024898 592.443377,641.073418 L592.443377,521.316456 C594.544818,522.284053 595.969869,524.299325 596.181299,526.602532 C596.454805,562.511392 596.272468,610.359494 596.181299,646.268354 Z" id="路径" fill="#FFFFFF"></path>
                    <path d="M596.545974,526.602532 L596.545974,646.268354 C596.384039,648.518672 594.976071,650.489188 592.899221,651.372152 C587.195166,654.386028 580.369509,654.386028 574.665455,651.372152 L574.665455,531.706329 C580.369509,534.720206 587.195166,534.720206 592.899221,531.706329 C594.962714,530.806805 596.364038,528.845589 596.545974,526.602532 L596.545974,526.602532 Z" id="路径" fill="#D5DAE2"></path>
                    <path d="M729.925974,466.359494 C750.985974,478.572152 751.168312,498.258228 729.925974,510.379747 L494.619221,647.088608 C470.690977,659.204105 442.42149,659.204105 418.493247,647.088608 L16.3475325,414.774684 C-4.71246753,402.653165 -4.80363636,382.875949 16.3475325,370.75443 L251.654286,234.04557 C275.536531,221.872202 303.806846,221.872202 327.689091,234.04557 L729.925974,466.359494 Z" id="路径" fill="#FFFFFF"></path>
                    <path d="M730.290649,510.379747 L494.983896,647.088608 C471.055653,659.204105 442.786166,659.204105 418.857922,647.088608 L16.3475325,414.774684 C7.49581995,410.738366 1.4553027,402.305209 0.484155844,392.627848 L0.484155844,512.293671 C1.4553027,521.971032 7.49581995,530.404188 16.3475325,534.440506 L418.584416,766.75443 C442.455868,778.972628 470.747768,778.972628 494.619221,766.75443 L729.925974,630.04557 C738.679125,626.087412 744.631925,617.735317 745.515844,608.172152 L745.515844,488.506329 C744.720794,497.99537 738.914762,506.336661 730.290649,510.379747 L730.290649,510.379747 Z" id="路径" fill="url(#linearGradient-3)"></path>
                    <ellipse id="椭圆形" fill="#FFFFFF" transform="translate(265.800727, 619.362996) rotate(-30.000000) translate(-265.800727, -619.362996) " cx="265.800727" cy="619.362996" rx="18.4146101" ry="31.8101767"></ellipse>
                    <ellipse id="椭圆形" fill="#7ECEA6" transform="translate(265.800727, 619.362996) rotate(-30.000000) translate(-265.800727, -619.362996) " cx="265.800727" cy="619.362996" rx="9.5719508" ry="16.4975415"></ellipse>
                    <ellipse id="椭圆形" fill="#FFFFFF" transform="translate(325.007271, 653.609434) rotate(-30.000000) translate(-325.007271, -653.609434) " cx="325.007271" cy="653.609434" rx="18.4146101" ry="31.8101767"></ellipse>
                    <ellipse id="椭圆形" fill="#7ECEA6" transform="translate(325.007271, 653.609434) rotate(-30.000000) translate(-325.007271, -653.609434) " cx="325.007271" cy="653.609434" rx="9.5719508" ry="16.4975415"></ellipse>
                    <ellipse id="椭圆形" fill="#FFFFFF" transform="translate(384.429523, 687.798092) rotate(-30.000000) translate(-384.429523, -687.798092) " cx="384.429523" cy="687.798092" rx="18.4146101" ry="31.8101767"></ellipse>
                    <ellipse id="椭圆形" fill="#FE8D8B" transform="translate(384.429523, 687.798092) rotate(-30.000000) translate(-384.429523, -687.798092) " cx="384.429523" cy="687.798092" rx="9.5719508" ry="16.4975415"></ellipse>
                </g>
            </g>
        </g>
    </g>
</svg>