<svg xmlns="http://www.w3.org/2000/svg" width="25" height="25" viewBox="0 0 25 25">
    <g fill="none" fill-rule="evenodd">
        <g>
            <g>
                <path d="M0 0H25V25H0z" transform="translate(-782 -382) translate(782 382)"/>
                <path fill="#6500c3" d="M16.246 12.024L24 16.926 24 6.915zM1 16.926L8.754 12.024 1 6.915zM22.563 4H2.438c-.718 0-1.287.535-1.395 1.223L12.5 12.772l11.457-7.549C23.849 4.535 23.28 4 22.562 4M14.93 12.892l-2.035 1.34c-.12.08-.257.118-.395.118s-.275-.039-.395-.118l-2.034-1.341-9.025 5.708c.11.683.677 1.214 1.392 1.214h20.125c.714 0 1.28-.53 1.391-1.214l-9.025-5.707z" transform="translate(-782 -382) translate(782 382)"/>
            </g>
        </g>
    </g>
</svg>
